<svg version="1.1" xmlns="http://www.w3.org/2000/svg" viewBox="0 0 41.72550319328866 41.725503193289" width="44"
  height="44">
  <!-- Fill -->
  <g id="fill-stroke" stroke-linecap="round"
    transform="scale(1.47) translate(3.75 3.5) rotate(0 10.862751596644443 10.8627515966445)">
    <path
      d="M1.85 4.26 C1.85 4.26, 1.85 4.26, 1.85 4.26 M1.85 4.26 C1.85 4.26, 1.85 4.26, 1.85 4.26 M0.28 12.16 C2.55 10.21, 4.77 6.9, 10.12 0.84 M0.28 12.16 C4.42 7.44, 7.76 3.68, 10.12 0.84 M1.98 16.3 C5.47 11.53, 9.24 7.64, 15.1 1.2 M1.98 16.3 C6.53 11.54, 10.79 6.48, 15.1 1.2 M4.34 19.68 C7.08 15.58, 11.59 12.04, 18.12 3.83 M4.34 19.68 C8.54 14.76, 12.19 10.48, 18.12 3.83 M8.68 20.79 C13.18 16.21, 16.02 10.7, 21.14 6.45 M8.68 20.79 C12.38 16.83, 15.82 11.81, 21.14 6.45 M13.66 21.15 C16.12 17.81, 19 14.74, 21.54 12.1 M13.66 21.15 C16.12 18.4, 18.19 16.31, 21.54 12.1 M2.55 18.41 C2.55 18.41, 2.55 18.41, 2.55 18.41 M2.55 18.41 C2.55 18.41, 2.55 18.41, 2.55 18.41 M11.21 20.64 C8.06 18.45, 4.03 14.88, -0.11 10.8 M11.21 20.64 C6.55 17.06, 2.55 13.11, -0.11 10.8 M16.1 19.59 C9.15 14.28, 3.89 8.84, 1 6.47 M16.1 19.59 C10.92 15.61, 6.85 11.47, 1 6.47 M18.72 16.57 C13.26 11.54, 6.7 7.59, 2.87 2.79 M18.72 16.57 C12.81 11.03, 7.08 5.73, 2.87 2.79 M21.34 13.55 C17.66 10.65, 15.6 7.56, 7.01 1.09 M21.34 13.55 C17.13 9.62, 12.1 6.28, 7.01 1.09 M20.95 7.91 C18.05 5.52, 15.94 2.88, 12.65 0.69 M20.95 7.91 C18.62 5.91, 16.73 4.27, 12.65 0.69"
      stroke="#ffc9c9" stroke-width="0.5" fill="none"></path>
  </g>

  <!-- Circle -->
  <g id="cicle-outline" stroke-linecap="round"
    transform="scale(1.5) translate(3 3) rotate(0 10.862751596644443 10.8627515966445)">
    <path
      d="M11.7 0.17 C13.98 0.08, 16.79 1.37, 18.51 2.94 C20.24 4.51, 21.74 7.26, 22.05 9.59 C22.36 11.93, 21.76 15, 20.39 16.97 C19.01 18.94, 16.07 20.78, 13.79 21.42 C11.5 22.07, 8.78 21.8, 6.66 20.84 C4.54 19.88, 2.11 17.77, 1.05 15.66 C0 13.55, -0.29 10.38, 0.32 8.17 C0.93 5.96, 2.77 3.76, 4.73 2.41 C6.69 1.05, 10.89 0.4, 12.08 0.03 C13.27 -0.35, 11.93 -0.02, 11.88 0.15 M8.87 0.44 C11.12 0.03, 15.14 0.51, 17.16 1.68 C19.17 2.86, 20.28 5.15, 20.95 7.48 C21.62 9.8, 21.98 13.39, 21.16 15.64 C20.34 17.9, 18.14 19.96, 16.04 21.01 C13.94 22.07, 10.73 22.66, 8.56 21.98 C6.38 21.29, 4.38 18.76, 2.99 16.9 C1.61 15.04, 0.22 13, 0.25 10.79 C0.28 8.59, 1.56 5.48, 3.18 3.66 C4.8 1.85, 8.88 0.4, 9.97 -0.11 C11.06 -0.61, 9.75 0.5, 9.71 0.64"
      stroke="#343a40" stroke-width="1" fill="none"></path>
  </g>
</svg>